<svg width="17" height="17" viewBox="0 0 17 17" fill="none" xmlns="http://www.w3.org/2000/svg">
<path d="M4.535 1.116C3.495 0.852004 2.405 0.964004 1.551 1.442C0.680997 1.928 0.0709967 2.79 0.0409967 3.943C-0.0050033 5.745 0.411997 8.16301 2.068 11.001C3.703 13.804 5.508 15.484 7.006 16.482C7.952 17.113 8.997 17.13 9.89 16.719C10.77 16.314 11.484 15.505 11.855 14.502C11.9473 14.2525 11.9844 13.986 11.9637 13.7208C11.943 13.4556 11.865 13.1981 11.735 12.966L10.781 11.264C10.4877 10.7402 10.0158 10.3394 9.45135 10.1348C8.88694 9.93027 8.26777 9.93567 7.707 10.15L7.041 10.405C6.718 10.528 6.421 10.471 6.253 10.305C5.688 9.75001 5.284 8.997 5.101 8.185C5.043 7.929 5.161 7.627 5.443 7.414L6.044 6.96C6.52987 6.59337 6.86529 6.06207 6.98736 5.46575C7.10942 4.86943 7.00973 4.24906 6.707 3.721L5.735 2.026C5.60623 1.8016 5.43363 1.60539 5.22747 1.44906C5.02132 1.29272 4.78582 1.17946 4.535 1.116V1.116ZM1.041 3.97C1.061 3.196 1.453 2.643 2.039 2.315C2.641 1.978 3.463 1.875 4.289 2.085C4.41003 2.11557 4.52367 2.1702 4.62314 2.24562C4.72262 2.32104 4.80589 2.41572 4.868 2.524L5.839 4.219C6.02061 4.53571 6.08049 4.90778 6.0074 5.26547C5.93432 5.62316 5.73329 5.94192 5.442 6.162L4.841 6.616C4.321 7.008 3.961 7.68 4.125 8.405C4.347 9.387 4.838 10.318 5.552 11.019C6.074 11.531 6.818 11.561 7.398 11.339L8.064 11.084C8.40049 10.9552 8.7721 10.9518 9.11087 11.0745C9.44965 11.1971 9.73296 11.4376 9.909 11.752L10.862 13.455C10.982 13.669 11.002 13.925 10.917 14.155C10.627 14.94 10.082 15.529 9.472 15.81C8.875 16.085 8.2 16.077 7.561 15.65C6.19 14.736 4.491 13.169 2.931 10.497C1.37 7.817 0.999997 5.583 1.042 3.97H1.041ZM10.743 1.062C10.6271 0.997557 10.4903 0.98179 10.3628 1.01817C10.2353 1.05455 10.1274 1.1401 10.063 1.256C9.99855 1.3719 9.98278 1.50866 10.0192 1.63618C10.0555 1.76371 10.1411 1.87156 10.257 1.936L10.641 2.15C11.8406 2.81641 12.861 3.76335 13.6151 4.90991C14.3691 6.05647 14.8343 7.36854 14.971 8.734L15.003 9.049C15.0068 9.11643 15.0242 9.18238 15.0541 9.2429C15.0841 9.30341 15.126 9.35724 15.1773 9.40111C15.2287 9.44499 15.2883 9.47802 15.3528 9.4982C15.4172 9.51838 15.4851 9.5253 15.5523 9.51854C15.6195 9.51178 15.6846 9.49148 15.7437 9.45887C15.8028 9.42626 15.8547 9.382 15.8963 9.32878C15.9379 9.27556 15.9682 9.21447 15.9855 9.1492C16.0028 9.08393 16.0067 9.01583 15.997 8.949L15.966 8.635C15.8134 7.1086 15.2935 5.64184 14.4506 4.36012C13.6077 3.07841 12.467 2.01987 11.126 1.275L10.743 1.062V1.062ZM9.571 3.742C9.63931 3.62838 9.74995 3.54653 9.87859 3.51446C10.0072 3.48239 10.1433 3.50273 10.257 3.571L10.381 3.645C11.1882 4.12896 11.8807 4.78243 12.4106 5.56025C12.9404 6.33807 13.2951 7.22168 13.45 8.15L13.494 8.417C13.5066 8.48248 13.5059 8.54981 13.4921 8.61504C13.4783 8.68026 13.4516 8.74206 13.4135 8.7968C13.3754 8.85154 13.3268 8.89812 13.2705 8.93379C13.2142 8.96946 13.1513 8.99351 13.0855 9.00451C13.0197 9.01552 12.9525 9.01326 12.8876 8.99787C12.8227 8.98248 12.7616 8.95427 12.7078 8.91491C12.6539 8.87554 12.6086 8.82581 12.5742 8.76863C12.5399 8.71146 12.5174 8.64801 12.508 8.582L12.463 8.315C12.3321 7.52965 12.0323 6.78206 11.5843 6.1239C11.1363 5.46575 10.5507 4.91271 9.868 4.503L9.744 4.428C9.68765 4.39426 9.6385 4.34975 9.59936 4.29701C9.56022 4.24427 9.53186 4.18434 9.51589 4.12064C9.49991 4.05693 9.49665 3.9907 9.50628 3.92574C9.5159 3.86077 9.53824 3.79834 9.572 3.742H9.571Z" fill="#CCCCCC"/>
</svg>
